# xmcd CD database file
#
# Track frame offsets:
#	150
#	33375
#	50325
#	78900
#	99975
#	119025
#	129075
#	149100
#	178575
#	214800
#	241350
#	274875
#	290400
#
# Disc length: 4161 seconds
#
# Revision: 0
# Processed by: cddbd v1.5.1PL2 Copyright (c) Steve Scherf et al.
# Submitted via: CDex 1.51
#
DISCID=c1103f0d
DTITLE=Thorsten Larbig - so close to you
DYEAR=1989
DGENRE=Jazz
TTITLE0=a place in my heart
TTITLE1=kassandra
TTITLE2=lazy sundays
TTITLE3=a brazilian love affair
TTITLE4=black orpheus
TTITLE5=one note samba
TTITLE6=don't bother
TTITLE7=spring is here
TTITLE8=summertime
TTITLE9=welcome to fall
TTITLE10=so close to you
TTITLE11=day and night
TTITLE12=of quick resolve
EXTD=YEAR: 1989
EXTT0=
EXTT1=
EXTT2=
EXTT3=
EXTT4=
EXTT5=
EXTT6=
EXTT7=
EXTT8=
EXTT9=
EXTT10=
EXTT11=
EXTT12=
PLAYORDER=
